<svg width="1664" height="765" viewBox="0 0 1664 765" fill="none" xmlns="http://www.w3.org/2000/svg">
<path d="M1549.46 765H64C28.6538 765 0 736.346 0 701V70.8935C0 32.9671 32.7954 3.36066 70.5241 7.22685L1242.08 127.28C1261.88 129.31 1279.62 140.444 1290.06 157.402L1603.97 667.455C1630.21 710.097 1599.53 765 1549.46 765Z" fill="#136DBD"/>
<path opacity="0.4" fill-rule="evenodd" clip-rule="evenodd" d="M1373.32 292.554C1308.42 389.803 1197.69 453.861 1072 453.861C872.073 453.861 710 291.788 710 91.861C710 85.4229 710.168 79.024 710.5 72.6685L828.103 84.7196C828.034 87.0917 828 89.4724 828 91.861C828 226.619 937.243 335.861 1072 335.861C1177.37 335.861 1267.14 269.066 1301.29 175.507L1373.32 292.554Z" fill="#51A8F5"/>
<path opacity="0.4" fill-rule="evenodd" clip-rule="evenodd" d="M289 764.861C266.316 613.199 149.553 492.292 0 463.429V584.754C84.2134 609.536 149.498 678.521 169.004 764.861H289Z" fill="#1D92F5"/>
<path opacity="0.4" fill-rule="evenodd" clip-rule="evenodd" d="M1604.2 667.698C1569.42 692.312 1541.37 725.799 1523.34 764.862H1397.61C1421.56 683.273 1473.47 613.642 1542.26 567.055L1603.97 667.317C1604.04 667.444 1604.12 667.571 1604.2 667.698Z" fill="#84C0F5"/>
</svg>
