<svg width="122" height="122" viewBox="0 0 122 122" fill="none" xmlns="http://www.w3.org/2000/svg">
<path d="M60.4422 70.7715C60.4422 69.793 60.2465 68.8004 59.897 67.9198C58.3173 64.0056 53.844 62.1044 49.9438 63.6701L49.3008 63.9217L45.4565 54.346C45.0371 53.3115 44.1425 52.5287 43.0661 52.2631C41.9897 51.9975 40.8294 52.2631 39.9068 53.0459L26.0395 66.5079L14.6604 71.0651C9.68383 73.0781 6.25894 77.817 5.95139 83.171C5.90946 83.9399 6.49658 84.6109 7.26543 84.6528C7.44913 84.6644 7.63329 84.6395 7.80733 84.5796C7.98137 84.5197 8.14185 84.426 8.27956 84.3039C8.41726 84.1818 8.52947 84.0337 8.60973 83.868C8.68999 83.7024 8.73672 83.5225 8.74723 83.3388C8.99885 79.0611 11.7388 75.2728 15.7089 73.6652L26.0395 69.5274L28.3181 75.2169L34.3291 90.1886L23.9845 94.3404C20.6155 95.6824 16.7992 95.3049 13.7657 93.3339C13.1227 92.9145 12.256 93.0962 11.8366 93.7393C11.4172 94.3823 11.599 95.249 12.242 95.6684C15.2715 97.6455 18.9509 98.3673 22.5027 97.6814L31.7569 110.71C33.1549 112.681 35.3915 113.785 37.6981 113.785C38.6067 113.785 39.5294 113.618 40.424 113.254L42.8284 112.29C43.821 111.884 44.5758 111.073 44.8694 110.039C45.1769 109.005 44.9812 107.914 44.3661 107.033L34.4969 93.1242L36.412 92.3553L55.7312 92.4951H55.8151C56.9334 92.4252 57.9539 91.8241 58.555 90.8875C59.1561 89.9369 59.2679 88.7627 58.8486 87.7282L55.0043 78.1525L55.6473 77.8869C57.071 77.3214 58.2913 76.3401 59.1491 75.0708C60.0069 73.8016 60.4624 72.3034 60.4562 70.7715H60.4422ZM31.8128 94.2006L42.0736 108.655C42.2413 108.893 42.2133 109.13 42.1714 109.242C42.1435 109.368 42.0316 109.578 41.766 109.69L39.3616 110.654C37.4185 111.423 35.2238 110.78 34.0216 109.088L25.2986 96.8147L31.7989 94.2006H31.8128ZM56.1785 89.3917C56.1086 89.5036 55.9549 89.6853 55.6753 89.7133L37.083 89.5735L30.8623 74.0985L28.4439 68.0595L41.766 55.1288C42.0037 54.9331 42.2553 54.9471 42.3811 54.989C42.5069 55.017 42.7446 55.1148 42.8564 55.4084L56.2484 88.7906C56.3603 89.0702 56.2484 89.3079 56.1925 89.4197L56.1785 89.3917ZM50.3213 66.5218L50.9643 66.2702C53.4526 65.2777 56.2904 66.4939 57.2969 68.9822C57.5205 69.5274 57.6464 70.1564 57.6464 70.7715C57.6464 72.7426 56.4162 74.5599 54.5989 75.2868L53.9558 75.5524L50.3352 66.5218H50.3213ZM10.4247 89.9369C10.8441 90.58 10.6624 91.4467 10.0054 91.8661C9.76771 92.0198 9.51608 92.0897 9.25048 92.0897C8.78916 92.0897 8.34183 91.8661 8.07623 91.4467C7.64287 90.7617 7.25146 90.0068 6.91596 89.196C6.91596 89.1821 6.86004 89.0423 6.84606 89.0283C6.58046 88.3154 6.92994 87.4626 7.64287 87.197C8.35581 86.9174 9.13864 87.211 9.41823 87.9239C9.41823 87.9379 9.47414 88.0637 9.47414 88.0777C9.76771 88.7906 10.0752 89.3917 10.4247 89.9369ZM66.3414 66.7315C65.7822 66.7315 65.265 66.396 65.0413 65.8508C64.9721 65.6803 64.9374 65.4976 64.9394 65.3135C64.9413 65.1294 64.9798 64.9475 65.0527 64.7785C65.1255 64.6094 65.2312 64.4565 65.3637 64.3286C65.4961 64.2007 65.6526 64.1004 65.8242 64.0335L71.6395 61.699C71.81 61.629 71.9928 61.5937 72.1771 61.5953C72.3614 61.5969 72.5435 61.6352 72.7128 61.7082C72.8821 61.7811 73.0351 61.8871 73.1629 62.0199C73.2906 62.1528 73.3905 62.3099 73.4568 62.4819C73.526 62.6524 73.5607 62.8351 73.5587 63.0192C73.5568 63.2033 73.5183 63.3852 73.4455 63.5542C73.3726 63.7233 73.2669 63.8762 73.1345 64.0041C73.002 64.132 72.8455 64.2323 72.674 64.2991L66.8586 66.6337C66.6909 66.7036 66.5091 66.7315 66.3414 66.7315ZM63.9789 52.6685L60.7218 58.0225C60.5975 58.2266 60.4231 58.3954 60.2151 58.5128C60.0071 58.6303 59.7724 58.6925 59.5335 58.6935C59.2764 58.6932 59.0244 58.6206 58.8066 58.4838C58.6502 58.3887 58.5142 58.2636 58.4063 58.1157C58.2984 57.9678 58.2208 57.8001 58.1779 57.6221C58.1351 57.4442 58.1278 57.2595 58.1565 57.0787C58.1852 56.8979 58.2494 56.7246 58.3453 56.5687L61.6025 51.2146C62.0079 50.5576 62.8606 50.3479 63.5176 50.7533C64.1746 51.1587 64.3843 52.0115 63.9789 52.6685ZM72.674 78.8235L66.621 77.2019C65.8801 77.0062 65.4328 76.2374 65.6285 75.4965C65.8242 74.7556 66.593 74.2943 67.3339 74.5039L73.3869 76.1255C74.1278 76.3212 74.5751 77.0901 74.3794 77.831C74.2117 78.46 73.6525 78.8654 73.0234 78.8654C72.9116 78.8654 72.7858 78.8515 72.66 78.8235H72.674ZM93.3492 79.173C81.7884 79.173 72.3804 88.581 72.3804 100.142C72.3804 111.703 81.7884 121.11 93.3492 121.11C104.91 121.11 114.318 111.703 114.318 100.142C114.318 88.581 104.91 79.173 93.3492 79.173ZM93.3492 118.315C83.3261 118.315 75.1762 110.165 75.1762 100.142C75.1762 90.1187 83.3261 81.9688 93.3492 81.9688C103.372 81.9688 111.522 90.1187 111.522 100.142C111.522 110.165 103.372 118.315 93.3492 118.315ZM99.5839 89.7133H87.1144C84.8079 89.7133 82.9207 91.6005 82.9207 93.907V106.376C82.9207 108.683 84.8079 110.57 87.1144 110.57H99.5839C101.89 110.57 103.778 108.683 103.778 106.376V93.907C103.778 91.6005 101.89 89.7133 99.5839 89.7133ZM100.982 106.376C100.982 107.145 100.353 107.774 99.5839 107.774H87.1144C86.3456 107.774 85.7165 107.145 85.7165 106.376V93.907C85.7165 93.1382 86.3456 92.5091 87.1144 92.5091H99.5839C100.353 92.5091 100.982 93.1382 100.982 93.907V106.376ZM93.3492 95.7383C90.9168 95.7383 88.9457 97.7233 88.9457 100.142C88.9457 102.56 90.9168 104.545 93.3492 104.545C95.7815 104.545 97.7526 102.56 97.7526 100.142C97.7526 97.7233 95.7815 95.7383 93.3492 95.7383ZM93.3492 101.749C92.4545 101.749 91.7415 101.022 91.7415 100.142C91.7415 99.261 92.4685 98.5341 93.3492 98.5341C94.2298 98.5341 94.9567 99.261 94.9567 100.142C94.9567 101.022 94.2298 101.749 93.3492 101.749ZM95.6138 66.9133C107.175 66.9133 116.583 57.5053 116.583 45.9445C116.583 34.3837 107.175 24.9758 95.6138 24.9758C84.053 24.9758 74.645 34.3837 74.645 45.9445C74.645 57.5053 84.053 66.9133 95.6138 66.9133ZM95.6138 27.7716C105.637 27.7716 113.787 35.9214 113.787 45.9445C113.787 55.9676 105.637 64.1174 95.6138 64.1174C85.5907 64.1174 77.4408 55.9676 77.4408 45.9445C77.4408 35.9214 85.5907 27.7716 95.6138 27.7716ZM88.9457 44.0573C88.9457 43.2885 89.5748 42.6594 90.3436 42.6594H93.475V40.0872C93.475 36.9419 96.0331 34.3837 99.1785 34.3837H100.898C101.667 34.3837 102.296 35.0128 102.296 35.7816C102.296 36.5505 101.667 37.1796 100.898 37.1796H99.1785C97.5709 37.1796 96.2708 38.4796 96.2708 40.0872V42.6594H99.3881C100.157 42.6594 100.786 43.2885 100.786 44.0573C100.786 44.8262 100.157 45.4552 99.3881 45.4552H96.2708V56.1074C96.2708 56.8762 95.6417 57.5053 94.8729 57.5053C94.104 57.5053 93.475 56.8762 93.475 56.1074V45.4552H90.3436C89.5748 45.4552 88.9457 44.8262 88.9457 44.0573ZM43.5973 0.889648C32.0365 0.889648 22.6285 10.2976 22.6285 21.8584C22.6285 33.4192 32.0365 42.8271 43.5973 42.8271C55.1581 42.8271 64.566 33.4192 64.566 21.8584C64.566 10.2976 55.1581 0.889648 43.5973 0.889648ZM43.5973 40.0313C33.5742 40.0313 25.4244 31.8815 25.4244 21.8584C25.4244 11.8353 33.5742 3.68548 43.5973 3.68548C53.6203 3.68548 61.7702 11.8353 61.7702 21.8584C61.7702 31.8815 53.6203 40.0313 43.5973 40.0313ZM50.1116 18.0561L42.6467 13.7505C41.2767 12.9537 39.6272 12.9537 38.2572 13.7505C36.8873 14.5473 36.0625 15.9592 36.0625 17.5528V26.178C36.0625 27.7576 36.8873 29.1835 38.2572 29.9803C38.9422 30.3717 39.6971 30.5814 40.452 30.5814C41.2069 30.5814 41.9617 30.3857 42.6467 29.9943L50.1116 25.6887C51.4815 24.8919 52.3063 23.48 52.3063 21.8864C52.3063 20.2927 51.4815 18.8808 50.1116 18.084V18.0561ZM48.7137 23.2284L41.2488 27.5339C40.5359 27.9533 39.8928 27.6737 39.6552 27.5339C39.4175 27.3941 38.8584 26.9888 38.8584 26.164V17.5388C38.8584 16.7141 39.4175 16.2947 39.6552 16.1689C39.795 16.085 40.0885 15.9452 40.452 15.9452C40.6896 15.9452 40.9552 16.0011 41.2348 16.1689L48.6997 20.4745C49.4126 20.8938 49.4965 21.5788 49.4965 21.8444C49.4965 22.11 49.4126 22.809 48.6997 23.2144L48.7137 23.2284Z" fill="#136DBD"/>
</svg>
