<svg width="136" height="136" viewBox="0 0 136 136" fill="none" xmlns="http://www.w3.org/2000/svg">
<g clip-path="url(#clip0_165_142)">
<mask id="mask0_165_142" style="mask-type:luminance" maskUnits="userSpaceOnUse" x="0" y="0" width="136" height="137">
<path d="M134 134.001V2.00146H2V134.001H134Z" fill="white" stroke="white" stroke-width="4"/>
</mask>
<g mask="url(#mask0_165_142)">
<path d="M2.65625 41.2598H123.653" stroke="#136DBD" stroke-width="4" stroke-miterlimit="10" stroke-linecap="round" stroke-linejoin="round"/>
<path d="M24.8378 29.9565C28.3164 29.9565 31.1549 27.1271 31.1549 23.6503C31.1549 20.1736 28.3164 17.3441 24.8378 17.3441C21.3669 17.3441 18.5281 20.1736 18.5281 23.6503C18.5281 27.1271 21.3669 29.9565 24.8378 29.9565Z" stroke="#136DBD" stroke-width="4" stroke-miterlimit="10" stroke-linecap="round" stroke-linejoin="round"/>
<path d="M79.6743 17.3441H103.437C106.908 17.3441 109.747 20.1813 109.747 23.6503C109.747 27.1197 106.908 29.9565 103.437 29.9565H79.6743C76.2034 29.9565 73.3646 27.1197 73.3646 23.6503C73.3646 20.1813 76.2034 17.3441 79.6743 17.3441Z" stroke="#136DBD" stroke-width="4" stroke-miterlimit="10" stroke-linecap="round" stroke-linejoin="round"/>
<path d="M48.1336 29.9565C51.6123 29.9565 54.4507 27.1271 54.4507 23.6503C54.4507 20.1736 51.6123 17.3441 48.1336 17.3441C44.6627 17.3441 41.824 20.1736 41.824 23.6503C41.824 27.1271 44.6627 29.9565 48.1336 29.9565Z" stroke="#136DBD" stroke-width="4" stroke-miterlimit="10" stroke-linecap="round" stroke-linejoin="round"/>
<path d="M43.1418 61.6917L37.8259 83.937" stroke="#136DBD" stroke-width="4" stroke-miterlimit="10" stroke-linecap="round" stroke-linejoin="round"/>
<path d="M55.3847 81.9272L62.9064 73.4836C63.2376 73.1149 63.2376 72.513 62.9064 72.1443L55.3847 63.7006" stroke="#136DBD" stroke-width="4" stroke-miterlimit="10" stroke-linecap="round" stroke-linejoin="round"/>
<path d="M25.5834 81.9272L18.0617 73.4836C17.7302 73.1149 17.7302 72.513 18.0617 72.1443L25.5834 63.7006" stroke="#136DBD" stroke-width="4" stroke-miterlimit="10" stroke-linecap="round" stroke-linejoin="round"/>
<path d="M107.45 73.4308C110.357 74.0782 113.075 75.222 115.522 76.757L117.698 74.5898C118.985 73.2954 121.101 73.2954 122.396 74.5898L125.822 78.0139C127.117 79.3083 127.117 81.423 125.822 82.7099L123.653 84.8846C125.202 87.3418 126.323 90.0443 126.967 92.8767H130.016C131.846 92.8767 133.344 94.3743 133.344 96.1954V101.049C133.344 102.87 131.846 104.368 130.016 104.368H126.951C126.306 107.183 125.191 109.87 123.653 112.315L125.822 114.482C127.117 115.777 127.117 117.891 125.822 119.178L122.396 122.61C121.101 123.904 118.985 123.904 117.698 122.61L115.522 120.442C113.067 121.986 110.369 123.103 107.541 123.746V126.831C107.541 128.66 106.042 130.158 104.22 130.158H99.3639C97.5415 130.158 96.0433 128.66 96.0433 126.831V123.739C93.182 123.091 90.4942 121.955 88.077 120.442L85.9087 122.61C84.6135 123.904 82.4981 123.904 81.2103 122.61L77.7771 119.178C76.4894 117.891 76.4894 115.777 77.7771 114.482L79.9528 112.315C78.4099 109.872 77.2924 107.185 76.6477 104.368H73.568C71.7387 104.368 70.2474 102.87 70.2474 101.049V96.1954C70.2474 94.3743 71.7387 92.8767 73.568 92.8767H76.6402C77.2774 90.0767 78.3794 87.4033 79.9002 84.9675L77.7168 82.7777C76.4219 81.4907 76.4219 79.3761 77.7168 78.0817L81.1426 74.6575C82.4378 73.3631 84.5535 73.3631 85.841 74.6575L88.0018 76.8099C90.4468 75.261 93.1346 74.1341 95.953 73.476V70.4133C95.953 68.5845 97.4437 67.0869 99.2733 67.0869H104.122C105.952 67.0869 107.45 68.5845 107.45 70.4133V73.4308Z" stroke="#136DBD" stroke-width="4" stroke-miterlimit="10" stroke-linecap="round" stroke-linejoin="round"/>
<path d="M101.795 84.9376C109.355 84.9376 115.484 91.0635 115.484 98.6263C115.484 106.182 109.355 112.308 101.795 112.308C94.2286 112.308 88.0993 106.182 88.0993 98.6263C88.0993 91.0635 94.2286 84.9376 101.795 84.9376Z" stroke="#136DBD" stroke-width="4" stroke-miterlimit="10" stroke-linecap="round" stroke-linejoin="round"/>
<path d="M28.2713 104.368H12.5497C7.11397 104.368 2.65625 99.048 2.65625 92.5534V17.6602C2.65625 11.1585 7.106 5.84546 12.5497 5.84546H113.76C119.204 5.84546 123.653 11.1659 123.653 17.6602V75.8469M73.568 104.368H52.0115" stroke="#136DBD" stroke-width="4" stroke-miterlimit="10" stroke-linecap="round" stroke-linejoin="round"/>
<path d="M40.1679 104.368H40.2201" stroke="#136DBD" stroke-width="4" stroke-miterlimit="10" stroke-linecap="round" stroke-linejoin="round"/>
</g>
</g>
<defs>
<clipPath id="clip0_165_142">
<rect width="136" height="136" fill="white"/>
</clipPath>
</defs>
</svg>
