<svg width="1792" height="793" viewBox="0 0 1792 793" fill="none" xmlns="http://www.w3.org/2000/svg">
<path fill-rule="evenodd" clip-rule="evenodd" d="M637.745 18.7452C625.743 6.74284 609.464 0 592.49 0H64C28.6538 0 0 28.6538 0 64V729C0 764.346 28.6537 793 64 793H1728C1763.35 793 1792 764.346 1792 729V64C1792 28.6538 1763.35 0 1728 0H1199.51C1182.54 0 1166.26 6.74285 1154.25 18.7452L1087.75 85.2548C1075.74 97.2572 1059.46 104 1042.49 104H749.51C732.536 104 716.257 97.2572 704.255 85.2548L637.745 18.7452Z" fill="#121E29"/>
</svg>
