<svg width="273" height="399" viewBox="0 0 273 399" fill="none" xmlns="http://www.w3.org/2000/svg">
<path d="M272.684 136.036C272.684 95.4488 254.875 59.03 226.606 34.1135C202.106 12.4879 169.785 -0.487438 134.386 0.0140256C75.6493 0.828904 25.5818 39.2849 7.364 92.1266C2.80955 105.353 0.202516 119.456 0.0140562 134.124C-0.488504 169.446 12.5152 201.696 34.1881 226.143C59.1591 254.319 95.6575 272.121 136.333 272.121C136.333 333.957 113.027 370.564 92.4851 390.842C88.7159 394.54 92.9562 400.715 97.7934 398.552C155.085 372.946 193.751 339.035 219.79 304.089C280.38 222.789 272.684 136.067 272.684 136.067V136.036Z" fill="#136DBD"/>
</svg>
