<svg
      width="140"
      height="21"
      viewBox="0 0 140 21"
      fill="none"
      xmlns="http://www.w3.org/2000/svg"
    >
      <path
        d="M12.8672 4.51953L9.67969 5.58594C9.25 4.32031 8.33984 3.6875 6.94922 3.6875C5.46484 3.6875 4.72266 4.16797 4.72266 5.12891C4.72266 5.51172 4.85938 5.83594 5.13281 6.10156C5.41406 6.36719 6.04297 6.59766 7.01953 6.79297C8.65234 7.12109 9.84766 7.45312 10.6055 7.78906C11.3633 8.125 12 8.66797 12.5156 9.41797C13.0391 10.1602 13.3008 10.9922 13.3008 11.9141C13.3008 13.3594 12.7422 14.6094 11.625 15.6641C10.5156 16.7188 8.86719 17.2461 6.67969 17.2461C5.03906 17.2461 3.64062 16.875 2.48438 16.1328C1.33594 15.3828 0.578125 14.2734 0.210938 12.8047L3.67969 12.0195C4.07031 13.5117 5.15625 14.2578 6.9375 14.2578C7.79688 14.2578 8.4375 14.0938 8.85938 13.7656C9.28125 13.4297 9.49219 13.0312 9.49219 12.5703C9.49219 12.1016 9.30078 11.7383 8.91797 11.4805C8.53516 11.2227 7.79688 10.9805 6.70312 10.7539C4.66406 10.332 3.21094 9.75781 2.34375 9.03125C1.47656 8.29688 1.04297 7.22656 1.04297 5.82031C1.04297 4.39844 1.55859 3.19922 2.58984 2.22266C3.62891 1.24609 5.03516 0.757812 6.80859 0.757812C9.94922 0.757812 11.9688 2.01172 12.8672 4.51953ZM27.1875 4.05078H19.5586V7.33203H25.5586V10.3438H19.5586V13.8359H27.1875V17H15.75V1.00391H27.1875V4.05078ZM36.5156 17L32.5781 3.95703V17H29.4375V1.00391H35.2734L38.0742 10.5781L41.0273 1.00391H46.875V17H43.1016V3.95703L39.082 17H36.5156ZM53.8359 1.00391V17H50.0977V1.00391H53.8359ZM69.9609 6.95703L66.0352 7.20312C65.9805 4.94531 65.1016 3.81641 63.3984 3.81641C61.4453 3.81641 60.4688 5.55469 60.4688 9.03125C60.4688 11.0391 60.7344 12.4023 61.2656 13.1211C61.7969 13.832 62.5391 14.1875 63.4922 14.1875C65.0391 14.1875 65.9844 13.1797 66.3281 11.1641L69.9609 11.3867C69.7266 13.3008 69.0117 14.7578 67.8164 15.7578C66.6289 16.75 65.1719 17.2461 63.4453 17.2461C61.3281 17.2461 59.6055 16.5156 58.2773 15.0547C56.957 13.5938 56.2969 11.5742 56.2969 8.99609C56.2969 6.58203 56.9375 4.60547 58.2188 3.06641C59.5 1.52734 61.25 0.757812 63.4688 0.757812C67.3125 0.757812 69.4766 2.82422 69.9609 6.95703ZM78.1406 17.2461C75.9844 17.2461 74.3164 16.4375 73.1367 14.8203C71.957 13.2031 71.3672 11.2461 71.3672 8.94922C71.3672 6.61328 71.9648 4.66406 73.1602 3.10156C74.3555 1.53906 76.0586 0.757812 78.2695 0.757812C80.5039 0.757812 82.1875 1.59375 83.3203 3.26562C84.4609 4.92969 85.0312 6.83594 85.0312 8.98438C85.0312 11.3047 84.4453 13.2617 83.2734 14.8555C82.1016 16.4492 80.3906 17.2461 78.1406 17.2461ZM78.2461 3.81641C76.2773 3.81641 75.293 5.54297 75.293 8.99609C75.293 12.457 76.2773 14.1875 78.2461 14.1875C80.1523 14.1875 81.1055 12.4609 81.1055 9.00781C81.1055 5.54688 80.1523 3.81641 78.2461 3.81641ZM91.2773 13.8359H97.6406V17H87.4805V1.00391H91.2773V13.8359ZM105.352 17.2461C103.195 17.2461 101.527 16.4375 100.348 14.8203C99.168 13.2031 98.5781 11.2461 98.5781 8.94922C98.5781 6.61328 99.1758 4.66406 100.371 3.10156C101.566 1.53906 103.27 0.757812 105.48 0.757812C107.715 0.757812 109.398 1.59375 110.531 3.26562C111.672 4.92969 112.242 6.83594 112.242 8.98438C112.242 11.3047 111.656 13.2617 110.484 14.8555C109.312 16.4492 107.602 17.2461 105.352 17.2461ZM105.457 3.81641C103.488 3.81641 102.504 5.54297 102.504 8.99609C102.504 12.457 103.488 14.1875 105.457 14.1875C107.363 14.1875 108.316 12.4609 108.316 9.00781C108.316 5.54688 107.363 3.81641 105.457 3.81641ZM127.008 1.00391V17H123.809L117.539 6.19531C117.547 6.46875 117.555 6.64844 117.562 6.73438C117.594 7.00781 117.609 7.23828 117.609 7.42578V17H114.691V1.00391H118.734L124.184 10.4375C124.137 9.96875 124.113 9.61328 124.113 9.37109V1.00391H127.008ZM139.5 5.16406V8.69141H135.867V5.16406H139.5ZM139.5 13.4141V16.6953L137.156 20.7969H135.867L137.684 17.0469H135.867V13.4141H139.5Z"
        fill="#FAFBFC"
      />
    </svg>