<svg width="91" height="248" viewBox="0 0 91 248" fill="none" xmlns="http://www.w3.org/2000/svg">
<path fill-rule="evenodd" clip-rule="evenodd" d="M68.3531 6.14691C61.6374 2.23855 53.8301 0 45.5 0C28.7012 0 14.0286 9.1038 6.14691 22.6469L29 45.5L68.3531 6.14691Z" fill="#1D92F5"/>
<path fill-rule="evenodd" clip-rule="evenodd" d="M6.14691 68.3566L29 45.5035L6.14691 22.6504C2.23855 29.3661 0 37.1734 0 45.5035C0 53.8336 2.23855 61.6409 6.14691 68.3566Z" fill="#136DBD"/>
<path fill-rule="evenodd" clip-rule="evenodd" d="M68.3531 84.8531L29 45.5L6.14691 68.3531C14.0286 81.8962 28.7012 91 45.5 91C53.8301 91 61.6374 88.7614 68.3531 84.8531Z" fill="#1D92F5"/>
<path fill-rule="evenodd" clip-rule="evenodd" d="M68.3531 6.14648C81.8962 14.0282 91 28.7007 91 45.4996C91 62.2984 81.8962 76.9709 68.3531 84.8527L29 45.4996L68.3531 6.14648Z" fill="#51A8F5"/>
<path fill-rule="evenodd" clip-rule="evenodd" d="M2.52018 145.52L29 172L75.0506 125.949C66.9447 118.994 56.3631 114.841 44.7953 115.005C25.2864 115.275 8.6466 128.003 2.52018 145.52Z" fill="#1D92F5"/>
<path fill-rule="evenodd" clip-rule="evenodd" d="M2.52023 145.5C2.49825 145.563 2.47641 145.626 2.45471 145.689C0.936561 150.097 0.0675509 154.799 0.00473086 159.688C-0.159966 171.263 4.02698 181.849 11.0333 189.947L29 171.98L2.52023 145.5Z" fill="#136DBD"/>
<path fill-rule="evenodd" clip-rule="evenodd" d="M75.5353 126.372C84.9583 134.677 90.8947 146.817 90.8947 160.346V160.357C90.8947 160.357 93.4563 189.223 73.3058 216.307L29 172.001L75.0506 125.95C75.2132 126.09 75.3747 126.23 75.5353 126.372Z" fill="#51A8F5"/>
<path fill-rule="evenodd" clip-rule="evenodd" d="M73.3058 216.306L29 172L11.0333 189.967C11.1534 190.106 11.2743 190.244 11.396 190.381C19.7197 199.773 31.8858 205.707 45.4445 205.707C45.4445 226.319 37.6757 238.521 30.8284 245.281C29.572 246.513 30.9854 248.572 32.5978 247.851C51.6951 239.315 64.5836 228.012 73.2633 216.363C73.2775 216.344 73.2916 216.325 73.3058 216.306Z" fill="#1D92F5"/>
</svg>
