<svg width="1920" height="771" viewBox="0 0 1920 771" fill="none" xmlns="http://www.w3.org/2000/svg">
<path opacity="0.4" fill-rule="evenodd" clip-rule="evenodd" d="M3.35129e-05 387.657C7.2775 387.221 14.6129 387 22 387C221.927 387 384 549.073 384 749C384 756.387 383.779 763.723 383.342 771L265.022 771C265.669 763.753 266 756.415 266 749C266 614.243 156.758 505 22 505C14.5848 505 7.24679 505.331 2.31689e-05 505.978L3.35129e-05 387.657Z" fill="#84C0F5" fill-opacity="0.2"/>
<path opacity="0.4" fill-rule="evenodd" clip-rule="evenodd" d="M1920 383.343C1912.72 383.779 1905.39 384 1898 384C1698.07 384 1536 221.927 1536 22C1536 14.6133 1536.22 7.27734 1536.66 0H1654.98C1654.33 7.24707 1654 14.585 1654 22C1654 156.758 1763.24 266 1898 266C1905.42 266 1912.75 265.669 1920 265.021V383.343Z" fill="#84C0F5" fill-opacity="0.3"/>
</svg>
