<svg width="1081" height="131" viewBox="0 0 1081 131" fill="none" xmlns="http://www.w3.org/2000/svg">
<path d="M100.982 30.1963L75.748 38.6387C72.3464 28.6191 65.141 23.6094 54.1318 23.6094C42.3805 23.6094 36.5049 27.4131 36.5049 35.0205C36.5049 38.0511 37.5872 40.6178 39.752 42.7207C41.9785 44.8236 46.9574 46.6481 54.6885 48.1943C67.6149 50.792 77.0778 53.4206 83.0771 56.0801C89.0765 58.7396 94.1172 63.0381 98.1992 68.9756C102.343 74.8512 104.415 81.4382 104.415 88.7363C104.415 100.178 99.9928 110.074 91.1484 118.424C82.3659 126.773 69.3158 130.948 51.998 130.948C39.0098 130.948 27.9388 128.01 18.7852 122.135C9.69336 116.197 3.69401 107.415 0.787109 95.7871L28.248 89.5713C31.3405 101.384 39.9375 107.291 54.0391 107.291C60.8424 107.291 65.9141 105.992 69.2539 103.395C72.5938 100.735 74.2637 97.5807 74.2637 93.9316C74.2637 90.2207 72.7484 87.3447 69.7178 85.3037C66.6872 83.2627 60.8424 81.3454 52.1836 79.5518C36.041 76.2119 24.5371 71.666 17.6719 65.9141C10.8066 60.1003 7.37402 51.627 7.37402 40.4941C7.37402 29.2376 11.4561 19.7438 19.6201 12.0127C27.846 4.28158 38.9788 0.416016 53.0186 0.416016C77.8818 0.416016 93.8698 10.3428 100.982 30.1963ZM223.852 26.4854H163.456V52.4619H210.956V76.3047H163.456V103.951H223.852V129H133.305V2.36426H223.852V26.4854ZM307.199 129L276.027 25.7432V129H251.164V2.36426H297.365L319.538 78.1602L342.917 2.36426H389.211V129H359.338V25.7432L327.517 129H307.199ZM453.818 2.36426V129H424.224V2.36426H453.818ZM590.975 49.4932L559.896 51.4414C559.463 33.5671 552.505 24.6299 539.021 24.6299C523.559 24.6299 515.828 38.3913 515.828 65.9141C515.828 81.8092 517.931 92.6019 522.137 98.292C526.342 103.92 532.218 106.734 539.764 106.734C552.01 106.734 559.493 98.7559 562.215 82.7988L590.975 84.5615C589.119 99.7145 583.46 111.249 573.997 119.166C564.596 127.021 553.061 130.948 539.393 130.948C522.632 130.948 508.994 125.165 498.479 113.6C488.027 102.034 482.801 86.0459 482.801 65.6357C482.801 46.5244 487.872 30.8766 498.016 18.6924C508.159 6.50814 522.013 0.416016 539.578 0.416016C570.008 0.416016 587.14 16.7751 590.975 49.4932ZM665.23 130.948C648.16 130.948 634.955 124.547 625.616 111.744C616.277 98.9414 611.607 83.4482 611.607 65.2646C611.607 46.7718 616.339 31.3405 625.802 18.9707C635.265 6.60091 648.748 0.416016 666.251 0.416016C683.94 0.416016 697.268 7.03385 706.236 20.2695C715.266 33.4434 719.781 48.5345 719.781 65.543C719.781 83.9121 715.143 99.4053 705.865 112.022C696.588 124.64 683.043 130.948 665.23 130.948ZM666.065 24.6299C650.479 24.6299 642.687 38.2985 642.687 65.6357C642.687 93.0348 650.479 106.734 666.065 106.734C681.157 106.734 688.702 93.0658 688.702 65.7285C688.702 38.3294 681.157 24.6299 666.065 24.6299ZM778.729 103.951H829.105V129H748.671V2.36426H778.729V103.951ZM899.65 130.948C882.58 130.948 869.375 124.547 860.036 111.744C850.697 98.9414 846.027 83.4482 846.027 65.2646C846.027 46.7718 850.759 31.3405 860.222 18.9707C869.685 6.60091 883.168 0.416016 900.671 0.416016C918.36 0.416016 931.688 7.03385 940.656 20.2695C949.686 33.4434 954.201 48.5345 954.201 65.543C954.201 83.9121 949.562 99.4053 940.285 112.022C931.008 124.64 917.463 130.948 899.65 130.948ZM900.485 24.6299C884.899 24.6299 877.106 38.2985 877.106 65.6357C877.106 93.0348 884.899 106.734 900.485 106.734C915.576 106.734 923.122 93.0658 923.122 65.7285C923.122 38.3294 915.576 24.6299 900.485 24.6299ZM1080.6 2.36426V129H1055.27L1005.63 43.4629C1005.7 45.6276 1005.76 47.0501 1005.82 47.7305C1006.07 49.8952 1006.19 51.7197 1006.19 53.2041V129H983.091V2.36426H1015.1L1058.24 77.0469C1057.87 73.3359 1057.68 70.5218 1057.68 68.6045V2.36426H1080.6Z" fill="url(#paint0_linear_27_23)"/>
<defs>
<linearGradient id="paint0_linear_27_23" x1="0.5" y1="62.5" x2="1093.5" y2="62.5" gradientUnits="userSpaceOnUse">
<stop offset="0.206322" stop-color="#C4C8CC"/>
<stop offset="0.334407" stop-color="#FAFBFC"/>
<stop offset="0.460883" stop-color="#C4C8CC"/>
<stop offset="0.676427" stop-color="#FAFBFC"/>
<stop offset="0.818936" stop-color="#C4C8CC"/>
</linearGradient>
</defs>
</svg>
