<svg width="122" height="122" viewBox="0 0 122 122" fill="none" xmlns="http://www.w3.org/2000/svg">
<path d="M62.9062 15.25H51.4688C50.9632 15.25 50.4783 15.0492 50.1208 14.6917C49.7633 14.3342 49.5625 13.8493 49.5625 13.3438C49.5625 12.8382 49.7633 12.3533 50.1208 11.9958C50.4783 11.6383 50.9632 11.4375 51.4688 11.4375H62.9062C63.4118 11.4375 63.8967 11.6383 64.2542 11.9958C64.6117 12.3533 64.8125 12.8382 64.8125 13.3438C64.8125 13.8493 64.6117 14.3342 64.2542 14.6917C63.8967 15.0492 63.4118 15.25 62.9062 15.25ZM78.1562 118.188H36.2188C33.6918 118.184 31.2693 117.179 29.4825 115.393C27.6957 113.606 26.6905 111.183 26.6875 108.656V81.9688C26.6875 81.4632 26.8883 80.9783 27.2458 80.6208C27.6033 80.2633 28.0882 80.0625 28.5938 80.0625C29.0993 80.0625 29.5842 80.2633 29.9417 80.6208C30.2992 80.9783 30.5 81.4632 30.5 81.9688V108.656C30.5 111.809 33.0658 114.375 36.2188 114.375H78.1562C81.3092 114.375 83.875 111.809 83.875 108.656V43.8438C83.875 43.3382 84.0758 42.8533 84.4333 42.4958C84.7908 42.1383 85.2757 41.9375 85.7812 41.9375C86.2868 41.9375 86.7717 42.1383 87.1292 42.4958C87.4867 42.8533 87.6875 43.3382 87.6875 43.8438V108.656C87.6875 113.91 83.4137 118.188 78.1562 118.188Z" fill="#136DBD"/>
<path d="M85.7812 19.0625C85.2756 19.0625 84.7908 18.8617 84.4333 18.5042C84.0758 18.1467 83.875 17.6618 83.875 17.1562V13.3438C83.875 10.1908 81.3091 7.625 78.1562 7.625H36.2187C33.0658 7.625 30.5 10.1908 30.5 13.3438V17.1562C30.5 17.6618 30.2991 18.1467 29.9416 18.5042C29.5841 18.8617 29.0993 19.0625 28.5937 19.0625C28.0881 19.0625 27.6033 18.8617 27.2458 18.5042C26.8883 18.1467 26.6875 17.6618 26.6875 17.1562V13.3438C26.6875 8.09013 30.9613 3.8125 36.2187 3.8125H78.1562C83.4136 3.8125 87.6875 8.09013 87.6875 13.3438V17.1562C87.6875 17.6618 87.4866 18.1467 87.1291 18.5042C86.7716 18.8617 86.2868 19.0625 85.7812 19.0625ZM55.2812 95.3125H40.0312C39.5256 95.3125 39.0408 95.1117 38.6833 94.7542C38.3258 94.3967 38.125 93.9118 38.125 93.4062C38.125 92.9007 38.3258 92.4158 38.6833 92.0583C39.0408 91.7008 39.5256 91.5 40.0312 91.5H55.2812C55.7868 91.5 56.2716 91.7008 56.6291 92.0583C56.9866 92.4158 57.1875 92.9007 57.1875 93.4062C57.1875 93.9118 56.9866 94.3967 56.6291 94.7542C56.2716 95.1117 55.7868 95.3125 55.2812 95.3125ZM66.7187 102.938H40.0312C39.5256 102.938 39.0408 102.737 38.6833 102.379C38.3258 102.022 38.125 101.537 38.125 101.031C38.125 100.526 38.3258 100.041 38.6833 99.6833C39.0408 99.3258 39.5256 99.125 40.0312 99.125H66.7187C67.2243 99.125 67.7091 99.3258 68.0666 99.6833C68.4241 100.041 68.625 100.526 68.625 101.031C68.625 101.537 68.4241 102.022 68.0666 102.379C67.7091 102.737 67.2243 102.938 66.7187 102.938ZM74.3437 87.6875H40.0312C39.5256 87.6875 39.0408 87.4867 38.6833 87.1292C38.3258 86.7717 38.125 86.2868 38.125 85.7812C38.125 85.2757 38.3258 84.7908 38.6833 84.4333C39.0408 84.0758 39.5256 83.875 40.0312 83.875H74.3437C74.8493 83.875 75.3341 84.0758 75.6916 84.4333C76.0491 84.7908 76.25 85.2757 76.25 85.7812C76.25 86.2868 76.0491 86.7717 75.6916 87.1292C75.3341 87.4867 74.8493 87.6875 74.3437 87.6875ZM34.3125 53.375C29.055 53.375 24.7812 49.0974 24.7812 43.8438C24.7812 38.5901 29.055 34.3125 34.3125 34.3125C39.5699 34.3125 43.8437 38.5901 43.8437 43.8438C43.8437 49.0974 39.5699 53.375 34.3125 53.375ZM34.3125 38.125C31.1595 38.125 28.5937 40.6908 28.5937 43.8438C28.5937 46.9967 31.1595 49.5625 34.3125 49.5625C37.4654 49.5625 40.0312 46.9967 40.0312 43.8438C40.0312 40.6908 37.4654 38.125 34.3125 38.125ZM34.3125 76.25C27.611 76.2431 21.1588 73.708 16.245 69.1511C15.9947 68.9197 15.811 68.6254 15.7131 68.2988C15.6152 67.9723 15.6067 67.6254 15.6884 67.2944C16.3946 64.4067 18.0511 61.8401 20.3916 60.0071C22.7321 58.1741 25.6208 57.1811 28.5937 57.1875H40.0312C43.0037 57.182 45.8919 58.1749 48.2327 60.0069C50.5736 61.8389 52.2314 64.4039 52.9403 67.2906C53.0221 67.6216 53.0135 67.9684 52.9156 68.295C52.8177 68.6216 52.634 68.9159 52.3837 69.1473C47.4695 73.7064 41.0158 76.243 34.3125 76.25ZM19.722 67.1267C27.9646 73.993 40.6603 73.993 48.9029 67.1267C48.2246 65.3231 47.0114 63.7699 45.4259 62.6749C43.8403 61.5799 41.9581 60.9955 40.0312 61H28.5937C26.6668 60.9955 24.7846 61.5799 23.199 62.6749C21.6135 63.7699 20.4003 65.3231 19.722 67.1267Z" fill="#136DBD"/>
<path d="M34.3125 76.25C19.6001 76.25 7.625 64.2788 7.625 49.5625C7.625 34.8463 19.6001 22.875 34.3125 22.875C49.0249 22.875 61 34.8463 61 49.5625C61 64.2788 49.0249 76.25 34.3125 76.25ZM34.3125 26.6875C21.6969 26.6875 11.4375 36.9469 11.4375 49.5625C11.4375 62.1781 21.6969 72.4375 34.3125 72.4375C46.9281 72.4375 57.1875 62.1781 57.1875 49.5625C57.1875 36.9469 46.9281 26.6875 34.3125 26.6875ZM17.1562 87.4969C16.104 87.4969 15.25 86.8335 15.25 85.7812V85.4C15.25 84.8944 15.4508 84.4096 15.8083 84.0521C16.1658 83.6946 16.6507 83.4937 17.1562 83.4937C17.6618 83.4937 18.1467 83.6946 18.5042 84.0521C18.8617 84.4096 19.0625 84.8944 19.0625 85.4C19.0625 86.4522 18.2085 87.4969 17.1562 87.4969ZM17.1562 95.1219C16.104 95.1219 15.25 94.4585 15.25 93.4062V93.025C15.25 92.5194 15.4508 92.0346 15.8083 91.6771C16.1658 91.3196 16.6507 91.1188 17.1562 91.1188C17.6618 91.1188 18.1467 91.3196 18.5042 91.6771C18.8617 92.0346 19.0625 92.5194 19.0625 93.025C19.0625 94.0772 18.2085 95.1219 17.1562 95.1219ZM17.1562 102.747C16.104 102.747 15.25 102.084 15.25 101.031V100.65C15.25 100.144 15.4508 99.6596 15.8083 99.3021C16.1658 98.9446 16.6507 98.7438 17.1562 98.7438C17.6618 98.7438 18.1467 98.9446 18.5042 99.3021C18.8617 99.6596 19.0625 100.144 19.0625 100.65C19.0625 101.702 18.2085 102.747 17.1562 102.747ZM92.7962 102.938H89.5938C89.0882 102.938 88.6033 102.737 88.2458 102.379C87.8883 102.022 87.6875 101.537 87.6875 101.031C87.6875 100.526 87.8883 100.041 88.2458 99.6833C88.6033 99.3258 89.0882 99.125 89.5938 99.125H91.2598L92.1939 94.7978C92.2689 94.4475 92.4416 94.1255 92.6919 93.8692C92.9421 93.6128 93.2599 93.4325 93.6083 93.3491C95.4479 92.898 97.2061 92.1636 98.82 91.1721C99.1243 90.9864 99.4746 90.8897 99.8311 90.8931C100.188 90.8964 100.536 90.9997 100.837 91.1912L104.611 93.6045L106.948 91.2484L104.535 87.5045C104.341 87.2035 104.236 86.854 104.231 86.4961C104.227 86.1382 104.323 85.7861 104.508 85.4801C105.5 83.8669 106.233 82.1084 106.681 80.2684C106.765 79.921 106.945 79.6041 107.199 79.3534C107.454 79.1028 107.774 78.9284 108.123 78.8501L112.465 77.8856V74.6183L108.123 73.6537C107.774 73.5754 107.454 73.4011 107.199 73.1504C106.945 72.8998 106.765 72.5828 106.681 72.2354C106.232 70.396 105.499 68.6377 104.508 67.0238C104.321 66.7191 104.224 66.3677 104.228 66.0101C104.232 65.6526 104.337 65.3035 104.531 65.0031L106.948 61.2249L104.615 58.8917L100.837 61.3088C100.536 61.5011 100.188 61.6049 99.8311 61.6083C99.4744 61.6117 99.124 61.5145 98.82 61.3279C97.2055 60.3377 95.4474 59.6034 93.6083 59.1509C93.2599 59.0675 92.9421 58.8872 92.6919 58.6308C92.4416 58.3745 92.2689 58.0525 92.1939 57.7022L91.2598 53.375H89.5938C89.0882 53.375 88.6033 53.1742 88.2458 52.8167C87.8883 52.4592 87.6875 51.9743 87.6875 51.4688C87.6875 50.9632 87.8883 50.4783 88.2458 50.1208C88.6033 49.7633 89.0882 49.5625 89.5938 49.5625H92.7962C93.2317 49.5632 93.6538 49.7131 93.9923 49.9871C94.3308 50.261 94.5653 50.6427 94.6567 51.0684L95.6747 55.7693C97.0701 56.1924 98.4388 56.7643 99.7579 57.4772L103.853 54.8581C104.219 54.6241 104.654 54.5222 105.086 54.5694C105.518 54.6165 105.921 54.8099 106.228 55.1173L110.73 59.6161C111.037 59.9236 111.23 60.3267 111.276 60.7587C111.323 61.1906 111.22 61.6255 110.986 61.9912L108.367 66.0859C109.079 67.4088 109.651 68.7775 110.075 70.1767L114.783 71.2213C115.207 71.315 115.586 71.5505 115.857 71.8888C116.129 72.227 116.277 72.6479 116.277 73.0818V79.4106C116.277 79.8445 116.129 80.2653 115.857 80.6036C115.586 80.9419 115.207 81.1773 114.783 81.2711L110.075 82.3157C109.644 83.732 109.072 85.1013 108.367 86.4027L110.982 90.4592C111.219 90.8236 111.323 91.2583 111.278 91.6906C111.233 92.1229 111.041 92.5266 110.734 92.8344L106.231 97.3713C105.925 97.6802 105.521 97.8748 105.088 97.9227C104.656 97.9706 104.219 97.8688 103.853 97.6343L99.7579 95.0151C98.4572 95.7192 97.0893 96.2914 95.6747 96.7231L94.6567 101.424C94.5668 101.851 94.333 102.234 93.9944 102.51C93.6557 102.785 93.2328 102.936 92.7962 102.938Z" fill="#136DBD"/>
<path d="M93.6083 86.803C93.1748 86.8024 92.7543 86.6541 92.4164 86.3825C92.0785 86.1108 91.8433 85.7321 91.7496 85.3088C91.6558 84.8855 91.7092 84.4429 91.9009 84.054C92.0926 83.6651 92.4111 83.3532 92.8039 83.1697C94.1202 82.5537 95.2342 81.576 96.0159 80.3508C96.7976 79.1256 97.2148 77.7033 97.2188 76.25C97.2169 74.9926 96.9045 73.7552 96.3093 72.6477C95.714 71.5402 94.8544 70.5968 93.8067 69.9016C92.7591 69.2063 91.5559 68.7806 90.3042 68.6623C89.0524 68.544 87.7908 68.7368 86.6314 69.2236C86.3993 69.3328 86.1475 69.394 85.8911 69.4036C85.6348 69.4131 85.3791 69.3708 85.1395 69.2792C84.8998 69.1877 84.6811 69.0486 84.4965 68.8705C84.3119 68.6924 84.1651 68.4788 84.065 68.2426C83.9648 68.0064 83.9134 67.7524 83.9138 67.4959C83.9141 67.2393 83.9663 66.9855 84.0671 66.7496C84.1679 66.5137 84.3153 66.3006 84.5004 66.123C84.6856 65.9454 84.9047 65.807 85.1446 65.7161C86.8834 64.9859 88.7757 64.6965 90.6533 64.8735C92.5309 65.0504 94.3358 65.6884 95.9076 66.7306C97.4794 67.7728 98.7695 69.187 99.6633 70.8477C100.557 72.5084 101.027 74.3641 101.031 76.25C101.026 78.429 100.401 80.5616 99.2294 82.3986C98.0574 84.2356 96.3868 85.7011 94.4128 86.6238C94.161 86.7417 93.8863 86.8029 93.6083 86.803ZM99.125 38.125H76.25C72.0448 38.125 68.625 34.7052 68.625 30.5C68.625 26.2948 72.0448 22.875 76.25 22.875H99.125C103.33 22.875 106.75 26.2948 106.75 30.5C106.75 34.7052 103.33 38.125 99.125 38.125ZM76.25 26.6875C75.2684 26.7314 74.3415 27.1523 73.6624 27.8624C72.9832 28.5726 72.6042 29.5174 72.6042 30.5C72.6042 31.4826 72.9832 32.4274 73.6624 33.1376C74.3415 33.8477 75.2684 34.2686 76.25 34.3125H99.125C100.107 34.2686 101.034 33.8477 101.713 33.1376C102.392 32.4274 102.771 31.4826 102.771 30.5C102.771 29.5174 102.392 28.5726 101.713 27.8624C101.034 27.1523 100.107 26.7314 99.125 26.6875H76.25Z" fill="#136DBD"/>
</svg>
