<svg width="122" height="122" viewBox="0 0 122 122" fill="none" xmlns="http://www.w3.org/2000/svg">
<path d="M85.41 16.0864L77.8798 13.5882L75.3819 6.05775C75.3261 5.88901 75.2186 5.74215 75.0746 5.63805C74.9305 5.53395 74.7574 5.47792 74.5797 5.47792C74.402 5.47792 74.2288 5.53395 74.0847 5.63805C73.9407 5.74215 73.8332 5.88901 73.7774 6.05775L71.2806 13.5882L63.7493 16.0864C63.581 16.1425 63.4347 16.2501 63.3309 16.394C63.2272 16.5379 63.1714 16.7108 63.1714 16.8882C63.1714 17.0656 63.2272 17.2385 63.3309 17.3824C63.4347 17.5263 63.581 17.6339 63.7493 17.69L71.2806 20.1879L73.7774 27.7187C73.8335 27.8872 73.9412 28.0338 74.0853 28.1378C74.2294 28.2417 74.4026 28.2976 74.5802 28.2975C74.7577 28.2975 74.9307 28.2416 75.0746 28.1377C75.2185 28.0338 75.326 27.8872 75.3819 27.7187L77.8798 20.1879L85.41 17.69C85.5786 17.634 85.7253 17.5264 85.8294 17.3823C85.9334 17.2383 85.9895 17.0652 85.9897 16.8875C85.9897 16.71 85.9336 16.5369 85.8295 16.3931C85.7255 16.2492 85.5786 16.1419 85.41 16.0864ZM109.032 6.53426L104.546 5.04624L103.058 0.56057C103.025 0.460325 102.961 0.373132 102.875 0.311344C102.789 0.249557 102.686 0.216309 102.581 0.216309C102.475 0.216309 102.372 0.249557 102.286 0.311344C102.201 0.373132 102.137 0.460325 102.103 0.56057L100.615 5.04624L96.1289 6.53426C96.0285 6.56744 95.9412 6.63142 95.8792 6.71711C95.8173 6.80281 95.784 6.90584 95.784 7.01156C95.784 7.22847 95.9227 7.42124 96.1289 7.48999L100.615 8.97801L102.103 13.4631C102.136 13.5636 102.2 13.6511 102.286 13.7132C102.372 13.7752 102.475 13.8086 102.581 13.8086C102.687 13.8086 102.79 13.7752 102.875 13.7132C102.961 13.6511 103.025 13.5636 103.058 13.4631L104.546 8.97801L109.032 7.48999C109.132 7.4565 109.22 7.39229 109.282 7.30644C109.344 7.22058 109.377 7.11743 109.377 7.01156C109.377 6.79494 109.238 6.60217 109.032 6.53426ZM49.5257 70.3926L28.8736 49.7404L38.8351 39.7783L59.8195 60.7624L63.9199 56.9266L41.6047 34.6108C41.4637 34.2558 41.2517 33.9334 40.9816 33.6634C40.7115 33.3934 40.3891 33.1814 40.0341 33.0405L33.5301 26.5365C31.2693 24.2757 28.2638 23.031 25.0667 23.031C21.8698 23.031 18.8643 24.276 16.604 26.5362L15.6315 27.5085C10.9651 32.1757 10.9654 39.7688 15.6318 44.4351L45.4248 74.2284L49.5257 70.3926ZM19.6 40.4672C17.1217 37.9889 17.1217 33.9558 19.6 31.4773L20.5723 30.505C21.773 29.3043 23.369 28.6432 25.0669 28.6432C26.7648 28.6432 28.3612 29.3041 29.5621 30.5053L34.8669 35.8101L24.9053 45.7722L19.6 40.4672ZM108.329 114.714C107.215 111.366 101.461 94.4675 97.6085 90.6152L97.5835 90.5899C97.4427 90.2349 97.2306 89.9125 96.9603 89.6426C96.6904 89.3725 96.368 89.1605 96.013 89.0197L82.3649 75.3713L78.7031 79.6462L90.8455 91.7886L80.8836 101.751L69.5109 90.3781L65.8493 94.653L79.7099 108.514C83.5622 112.366 100.46 118.119 103.809 119.234C104.303 119.398 104.833 119.422 105.339 119.302C105.846 119.182 106.31 118.924 106.678 118.556L107.65 117.585C108.019 117.217 108.278 116.753 108.398 116.246C108.518 115.739 108.494 115.209 108.329 114.714ZM85.0399 105.532L94.6271 95.9449C96.5596 99.1513 99.4333 106.341 101.647 112.551C95.4367 110.338 88.2468 107.465 85.0399 105.532Z" fill="#136DBD"/>
<path d="M107.636 25.8922L107.087 25.3434C105.595 23.8526 103.598 23.0312 101.464 23.0312C99.3156 23.0312 97.2984 23.8562 95.7767 25.3557L34.311 82.0706C34.2832 82.0962 34.2566 82.1222 34.2296 82.1486C32.9577 83.4203 32.2758 85.0312 32.2506 86.8116C31.4789 86.6488 30.6926 86.5657 29.9039 86.5636C26.6916 86.5636 23.7958 87.9416 21.2973 90.6595C18.1319 94.103 16.8251 97.9046 15.6727 101.258C13.9622 106.236 12.6108 110.168 5.93926 113.016C5.51719 113.196 5.14575 113.477 4.85748 113.834C4.56921 114.191 4.37291 114.613 4.28578 115.064C4.19865 115.514 4.22335 115.979 4.35772 116.418C4.49209 116.857 4.73202 117.256 5.05649 117.581C7.25415 119.778 13.1251 120.559 17.4845 120.559C23.188 120.559 33.9852 119.329 42.2155 111.098C44.5633 108.751 45.7505 106.008 45.7438 102.946C45.7395 102.187 45.6635 101.429 45.5168 100.685C45.7043 100.7 45.8923 100.708 46.0805 100.709C47.9083 100.709 49.5608 100.023 50.8597 98.724C50.886 98.6973 50.9124 98.6704 50.9377 98.6426L107.625 37.2035C110.728 34.0552 110.738 28.9946 107.636 25.8922ZM38.2473 107.13C31.4466 113.931 22.3198 114.947 17.4848 114.947C16.1466 114.947 14.9518 114.873 13.9091 114.758C18.174 111.247 19.6429 106.974 20.98 103.083C22.0485 99.9737 23.0575 97.0373 25.4289 94.4577C26.8403 92.9223 28.3039 92.1759 29.9036 92.1759C32.5539 92.1759 35.2196 94.2506 36.2665 95.2748C36.3729 95.3876 36.4534 95.469 36.4972 95.5128L36.5841 95.6C36.876 95.9025 40.1239 99.362 40.1321 102.959C40.1354 104.494 39.5187 105.859 38.2473 107.13ZM103.614 33.2799C103.587 33.3064 103.561 33.3335 103.536 33.3613L46.86 94.7871C46.6237 95.013 46.4082 95.0975 46.0808 95.0975C44.6873 95.0975 42.5205 93.582 41.4368 92.5154L40.5754 91.6539L40.5622 91.6405C40.4663 91.5388 40.3687 91.4387 40.2695 91.3402C39.3977 90.4019 37.862 88.3311 37.86 86.9157C37.8598 86.5945 37.9437 86.3829 38.1667 86.1491L99.6198 29.4463C99.6476 29.4205 99.6748 29.3941 99.7015 29.3678C100.168 28.9006 100.794 28.6435 101.464 28.6435C102.1 28.6435 102.688 28.8812 103.12 29.3133L103.669 29.8616C104.581 30.773 104.555 32.3388 103.614 33.2799Z" fill="#136DBD"/>
</svg>
