<svg width="122" height="122" viewBox="0 0 122 122" fill="none" xmlns="http://www.w3.org/2000/svg">
<g clip-path="url(#clip0_143_747)">
<path d="M29.3479 106.409H13.4779M21.3838 49.9952H31.1112M21.3838 59.5174H31.1112M21.3838 69.0394H31.1112M11.7144 49.9952H12.7354M11.7144 59.5174H12.7354M11.7144 69.0394H12.7354M20.0964 1.78711V15.7883M2.89774 1.78711V11.4215C2.89774 13.0623 3.71171 14.167 5.09421 15.0503C5.7676 15.4807 6.61802 15.7871 7.67504 15.7885C8.59028 15.7897 9.3554 15.5779 9.9878 15.2593C11.5991 14.4479 12.6265 13.2156 12.6265 11.4115V1.78711M57.8954 1.78711L67.745 15.7883M67.0519 1.78711L57.1885 15.7883M41.7979 1.78711V11.4215C41.7979 13.0623 42.6118 14.167 43.9943 15.0503C44.6677 15.4807 45.5182 15.7871 46.5752 15.7885C47.4904 15.7897 48.2555 15.5779 48.8879 15.2593C50.4992 14.4479 51.5266 13.2156 51.5266 11.4115V1.78711M34.1853 1.78711L28.2644 15.7883M2.89774 27.2453H119.102M106.644 1.83477H119.102M119.102 8.78757H106.644M119.102 15.7406H106.644M12.6289 92.6063H7.66336C5.03131 92.6063 2.89774 94.7399 2.89774 97.372V115.447C2.89774 118.079 5.03131 120.213 7.66336 120.213H35.1624C37.7945 120.213 39.9281 118.079 39.9281 115.447V97.372C39.9281 94.7399 37.7945 92.6063 35.1624 92.6063H20.9687M2.89774 59.6206V75.5228C2.89774 78.1548 5.03131 80.2884 7.66336 80.2884H35.1624C37.7945 80.2884 39.9281 78.1548 39.9281 75.5228V43.5118C39.9281 40.8798 37.7945 38.7462 35.1624 38.7462H7.66336C5.03131 38.7462 2.89774 40.8798 2.89774 43.5118V51.2807M114.337 120.213H55.8026C53.1706 120.213 51.037 118.079 51.037 115.447V43.5118C51.037 40.8798 53.1706 38.7462 55.8026 38.7462H114.337C116.969 38.7462 119.102 40.8798 119.102 43.5118V115.447C119.102 118.079 116.969 120.213 114.337 120.213Z" stroke="#136DBD" stroke-width="4" stroke-miterlimit="10" stroke-linecap="round" stroke-linejoin="round"/>
<path d="M68.6088 72.874C70.4676 80.2345 77.1316 85.6826 85.0697 85.6826C94.4468 85.6826 102.048 78.0812 102.048 68.7041C102.048 59.327 94.4468 51.7256 85.0697 51.7256C77.1319 51.7256 70.4679 57.1736 68.6088 64.5342M100.587 107.87H69.5521C66.4357 107.87 63.9094 105.343 63.9094 102.227C63.9094 99.1104 66.4357 96.5842 69.5521 96.5842H100.587C103.704 96.5842 106.23 99.1104 106.23 102.227C106.23 105.343 103.704 107.87 100.587 107.87Z" stroke="#136DBD" stroke-width="4" stroke-miterlimit="10" stroke-linecap="round" stroke-linejoin="round"/>
</g>
<defs>
<clipPath id="clip0_143_747">
<rect width="122" height="122" fill="white"/>
</clipPath>
</defs>
</svg>
